<svg width="2048" height="1152" viewBox="0 0 2048 1152" fill="none" xmlns="http://www.w3.org/2000/svg" role="img" aria-labelledby="title desc">
  <title id="title">CodeHelm product graphic</title>
  <desc id="desc">CodeHelm wordmark with overlapping terminal and Discord thread symbols.</desc>
  <rect width="2048" height="1152" fill="white"/>
  <g stroke="black" stroke-width="18" stroke-linecap="round" stroke-linejoin="round">
    <path d="M280 536V405C280 373.52 305.52 348 337 348H576C607.48 348 633 373.52 633 405V602C633 633.48 607.48 659 576 659H472"/>
    <path d="M360 407L411 438L360 470"/>
    <path d="M435 470H492"/>
    <path d="M154 549C154 517.52 179.52 492 211 492H417C448.48 492 474 517.52 474 549V658C474 689.48 448.48 715 417 715H347L314 766L282 715H211C179.52 715 154 689.48 154 658V549Z"/>
    <path d="M236 595L288 628L236 660"/>
    <path d="M314 660H370"/>
  </g>
  <text x="716" y="666"
        fill="black"
        font-family="Comic Sans MS, Chalkboard SE, Arial Rounded MT Bold, sans-serif"
        font-size="205"
        font-weight="400"
        letter-spacing="0">CodeHelm</text>
</svg>
